HIERARCHY
ROOT hip
{
	OFFSET 0.000000 0.000000 0.000000
	CHANNELS 6 Xposition Yposition Zposition Zrotation Yrotation Xrotation 
	JOINT lhipjoint
	{
		OFFSET 0.000000 0.000000 0.000000
		CHANNELS 3 Zrotation Yrotation Xrotation
		JOINT lfemur
		{
			OFFSET 1.363060 -1.794630 0.839290
			CHANNELS 3 Zrotation Yrotation Xrotation
			JOINT ltibia
			{
				OFFSET 2.448110 -6.726130 0.000000
				CHANNELS 3 Zrotation Yrotation Xrotation
				JOINT lfoot
				{
					OFFSET 2.562200 -7.039590 0.000000
					CHANNELS 3 Zrotation Yrotation Xrotation
					JOINT ltoes
					{
						OFFSET 0.157640 -0.433110 2.322550
						CHANNELS 3 Zrotation Yrotation Xrotation
						End Site
						{
							OFFSET 0.000000 0.000000 0.000000
						}
					}
				}
			}
		}
	}
	JOINT rhipjoint
	{
		OFFSET 0.000000 0.000000 0.000000
		CHANNELS 3 Zrotation Yrotation Xrotation
		JOINT rfemur
		{
			OFFSET -1.305520 -1.794630 0.839290
			CHANNELS 3 Zrotation Yrotation Xrotation
			JOINT rtibia
			{
				OFFSET -2.542530 -6.985550 0.000000
				CHANNELS 3 Zrotation Yrotation Xrotation
				JOINT rfoot
				{
					OFFSET -2.568260 -7.056230 0.000000
					CHANNELS 3 Zrotation Yrotation Xrotation
					JOINT rtoes
					{
						OFFSET -0.164730 -0.452590 2.363150
						CHANNELS 3 Zrotation Yrotation Xrotation
						End Site
						{
							OFFSET 0.000000 0.000000 0.000000
						}
					}
				}
			}
		}
	}
	JOINT lowerback
	{
		OFFSET 0.000000 0.000000 0.000000
		CHANNELS 3 Zrotation Yrotation Xrotation
		JOINT upperback
		{
			OFFSET 0.028270 2.035590 -0.193380
			CHANNELS 3 Zrotation Yrotation Xrotation
			JOINT thorax
			{
				OFFSET 0.056720 2.048850 -0.042750
				CHANNELS 3 Zrotation Yrotation Xrotation
				JOINT lowerneck
				{
					OFFSET 0.000000 0.000000 0.000000
					CHANNELS 3 Zrotation Yrotation Xrotation
					JOINT upperneck
					{
						OFFSET -0.054170 1.746240 0.172020
						CHANNELS 3 Zrotation Yrotation Xrotation
						JOINT head
						{
							OFFSET 0.104070 1.761360 -0.123970
							CHANNELS 3 Zrotation Yrotation Xrotation
							End Site
							{
								OFFSET 0.000000 0.000000 0.000000
							}
						}
					}
				}
				JOINT lclavicle
				{
					OFFSET 0.000000 0.000000 0.000000
					CHANNELS 3 Zrotation Yrotation Xrotation
					JOINT lhumerus
					{
						OFFSET 3.362410 1.200890 -0.311210
						CHANNELS 3 Zrotation Yrotation Xrotation
						JOINT lradius
						{
							OFFSET 4.983000 -0.000000 -0.000000
							CHANNELS 3 Zrotation Yrotation Xrotation
							JOINT lwrist
							{
								OFFSET 3.483560 -0.000000 -0.000000
								CHANNELS 3 Zrotation Yrotation Xrotation
								JOINT lhand
								{
									OFFSET 0.000000 0.000000 0.000000
									CHANNELS 3 Zrotation Yrotation Xrotation
									JOINT lfingers
									{
										OFFSET 0.715260 -0.000000 -0.000000
										CHANNELS 3 Zrotation Yrotation Xrotation
										End Site
										{
											OFFSET 0.000000 0.000000 0.000000
										}
									}
								}
								JOINT lthumb
								{
									OFFSET 0.000000 0.000000 0.000000
									CHANNELS 3 Zrotation Yrotation Xrotation
									End Site
									{
										OFFSET 0.000000 0.000000 0.000000
									}
								}
							}
						}
					}
				}
				JOINT rclavicle
				{
					OFFSET 0.000000 0.000000 0.000000
					CHANNELS 3 Zrotation Yrotation Xrotation
					JOINT rhumerus
					{
						OFFSET -3.136600 1.374050 -0.404650
						CHANNELS 3 Zrotation Yrotation Xrotation
						JOINT rradius
						{
							OFFSET -5.241900 -0.000000 -0.000000
							CHANNELS 3 Zrotation Yrotation Xrotation
							JOINT rwrist
							{
								OFFSET -3.444170 -0.000000 -0.000000
								CHANNELS 3 Zrotation Yrotation Xrotation
								JOINT rhand
								{
									OFFSET 0.000000 0.000000 0.000000
									CHANNELS 3 Zrotation Yrotation Xrotation
									JOINT rfingers
									{
										OFFSET -0.622530 -0.000000 -0.000000
										CHANNELS 3 Zrotation Yrotation Xrotation
										End Site
										{
											OFFSET 0.000000 0.000000 0.000000
										}
									}
								}
								JOINT rthumb
								{
									OFFSET 0.000000 0.000000 0.000000
									CHANNELS 3 Zrotation Yrotation Xrotation
									End Site
									{
										OFFSET 0.000000 0.000000 0.000000
									}
								}
							}
						}
					}
				}
			}
		}
	}
}
MOTION
Frames: 6
Frame Time: 0.008333
-6.097461 22.900710 -8.793356 -168.246110 75.098214 -173.742593 -3.625120 1.803277 1.524355 -15.373603 -0.258963 -19.204793 2.087178 7.798583 24.686579 1.776998 3.797736 29.819850 2.704600 -10.200700 -29.629100 -0.642652 -3.828141 1.323514 17.863494 5.016096 -23.534351 -4.888177 -12.017995 38.641365 -0.080732 -10.072926 24.861645 -0.587500 4.907500 -13.645000 6.443162 -2.983021 4.346232 3.019480 -3.796256 -4.369291 7.515949 -0.905552 3.910032 -6.102459 -5.305466 -11.071622 -4.972712 -4.998921 4.586593 1.731100 -2.254300 2.460800 0.349909 -0.431370 0.051335 -47.196077 50.874600 -32.494090 3.614988 -18.906961 -0.938590 -0.865050 2.197323 -146.865633 21.822304 14.441081 5.757600 -7.125000 0.000000 0.000000 -7.465300 46.963200 -0.363600 1.867743 3.826889 5.111391 87.918034 -54.357326 3.360237 -7.148650 16.341724 -1.840657 -0.757911 -3.368795 0.470386 -19.372195 -2.749846 -0.287400 7.125000 0.000000 0.000000 6.128900 -29.060200 2.392800 
-5.814783 22.400233 -8.816212 -167.736387 75.622926 -173.336643 -3.601841 1.798033 1.509891 -15.323175 0.243660 -19.521666 2.119674 7.879300 24.901229 1.897682 3.734967 30.472911 3.263300 -11.109500 -32.650200 -0.628788 -3.814295 1.303081 17.650198 5.769827 -23.378565 -4.911580 -12.027185 38.663525 -0.180974 -10.173726 25.626190 -0.690700 5.312900 -14.803300 6.615959 -2.952078 3.749072 3.043262 -3.813322 -4.337067 7.480447 -0.900421 4.141664 -6.176426 -5.216327 -10.845616 -5.088071 -4.877648 4.708657 1.696300 -2.210900 2.450200 0.470817 -0.487207 -0.142777 -49.252812 51.864253 -35.640241 3.400322 -18.722313 -0.872630 -0.934737 2.288704 -148.651820 21.342865 13.814007 5.412200 -7.125000 0.000000 0.000000 -7.840000 46.340800 -0.261000 1.758656 3.883913 5.074008 87.753661 -53.641526 3.043337 -7.288199 16.645404 -1.822126 -0.725417 -3.315835 0.515944 -19.007454 -2.554036 -0.325500 7.125000 0.000000 0.000000 6.380600 -28.922400 2.513100 
-5.543072 21.892171 -8.837224 -167.647144 76.143204 -173.434162 -3.585820 1.801578 1.499661 -15.362696 0.610868 -19.630436 2.138158 7.925987 25.026741 2.109397 3.515675 31.571469 3.860200 -11.972000 -35.633100 -0.624156 -3.791435 1.279255 17.326104 6.448214 -23.254179 -4.953284 -12.077253 38.859516 -0.378207 -9.851263 26.543148 -0.962500 6.246700 -17.501900 6.671070 -2.921353 3.366577 3.049966 -3.811055 -4.299784 7.417859 -0.890021 4.276735 -6.210413 -5.127978 -10.605766 -5.204276 -4.764076 4.826386 1.648500 -2.172300 2.447300 0.607163 -0.575414 -0.364287 -51.364976 52.791606 -38.666527 3.214070 -18.555217 -0.824544 -1.024869 2.348800 -150.954286 20.770392 13.221185 5.060200 -7.125000 0.000000 0.000000 -8.287600 45.728200 -0.150000 1.599376 3.971275 5.017211 87.604707 -52.675884 1.987862 -7.124995 16.637459 -1.765908 -0.730187 -3.225538 1.606008 -18.591569 -2.489588 -0.309300 7.125000 0.000000 0.000000 6.665800 -28.952000 2.622100 
-5.285300 21.376115 -8.855775 -167.809860 76.682075 -174.054290 -3.575843 1.820777 1.494942 -15.384972 0.778153 -19.396271 2.170008 7.997854 25.227619 2.358347 3.277837 32.839825 4.313400 -12.566200 -37.765400 -0.621383 -3.763416 1.250594 16.970952 7.045408 -22.912534 -5.010898 -12.148654 39.181475 -0.702068 -9.159546 27.881117 -1.233800 7.044000 -19.845700 6.659153 -2.904979 3.463549 3.033388 -3.763426 -4.244494 7.311813 -0.862478 4.217040 -6.293943 -5.057995 -10.283329 -5.164238 -4.680234 4.827845 1.701400 -2.129400 2.407900 0.757621 -0.710032 -0.636990 -53.697019 53.443199 -42.899859 3.182268 -18.314942 -0.785030 -1.082997 2.395466 -152.324095 20.338960 12.815665 4.814900 -7.125000 0.000000 0.000000 -8.631100 45.308200 -0.066200 1.362911 4.115853 4.962500 87.522020 -51.425993 0.295882 -6.616452 16.293833 -1.675366 -0.796984 -3.089998 3.528358 -18.269902 -2.321177 -0.317300 7.125000 0.000000 0.000000 6.891000 -28.908200 2.719100 
-5.044132 20.854524 -8.874736 -168.003854 77.175811 -174.789534 -3.567397 1.844167 1.492792 -15.354750 0.730310 -19.017080 2.207678 8.085886 25.492908 2.582968 2.959657 33.894380 4.536500 -12.842000 -38.779900 -0.625559 -3.726449 1.221356 16.631407 7.436163 -22.614192 -5.085075 -12.256948 39.682704 -1.071722 -8.070943 29.141141 -1.337100 7.321600 -20.671700 6.704438 -2.927369 3.864887 3.015418 -3.715872 -4.180984 7.191595 -0.838825 4.041351 -6.477868 -5.004603 -10.062918 -5.036218 -4.604894 4.755925 1.825700 -2.081700 2.399300 0.951706 -0.886155 -0.983154 -56.641870 53.574849 -49.515834 3.441465 -17.995846 -0.756125 -1.088537 2.435841 -151.712031 20.106703 12.826331 4.744900 -7.125000 0.000000 0.000000 -8.885700 45.295600 -0.065400 1.054378 4.301269 4.899653 87.341322 -49.811871 -1.986282 -5.871647 15.685556 -1.566549 -0.914223 -2.908022 6.184281 -18.091207 -2.021733 -0.358900 7.125000 0.000000 0.000000 7.017900 -28.759900 2.794700 
-4.817518 20.313766 -8.894108 -167.320573 77.614373 -174.920207 -3.549130 1.859662 1.502196 -15.050356 0.485565 -18.345868 2.235347 8.199224 25.880778 2.713308 2.145497 34.137866 4.586300 -12.902200 -39.003300 -0.632634 -3.692177 1.195760 16.550354 7.672295 -22.132648 -5.192451 -12.410091 40.486827 -1.377674 -6.403478 29.625673 -1.394800 7.471700 -21.120600 7.027960 -3.002278 4.754254 3.002071 -3.644896 -4.099675 6.995801 -0.802125 3.735758 -6.637009 -4.974201 -9.876423 -4.931044 -4.545498 4.544285 1.939900 -2.026700 2.338200 1.150330 -1.041867 -1.269046 -59.773381 53.179882 -56.747150 3.938696 -17.760587 -0.770390 -1.077121 2.431721 -150.281072 19.819590 13.051832 4.708200 -7.125000 0.000000 0.000000 -9.216600 45.430000 -0.098700 0.746414 4.483973 4.856626 87.150448 -48.136006 -3.845849 -5.310617 15.267517 -1.485098 -0.993555 -2.756267 8.427655 -17.917365 -1.812770 -0.380600 7.125000 0.000000 0.000000 7.138100 -28.676300 2.857500 
